<mxfile host="app.diagrams.net" modified="2020-08-30T20:17:09.383Z" agent="5.0 (Windows NT 10.0; Win64; x64) AppleWebKit/537.36 (KHTML, like Gecko) Chrome/84.0.4147.135 Safari/537.36" etag="SPp2-zZ0NfoCJJKfgwvs" version="13.6.5" type="github">
  <diagram id="C5RBs43oDa-KdzZeNtuy" name="Page-1">
    <mxGraphModel dx="1292" dy="692" grid="1" gridSize="16" guides="1" tooltips="1" connect="1" arrows="1" fold="1" page="1" pageScale="1" pageWidth="1169" pageHeight="827" math="0" shadow="0">
      <root>
        <mxCell id="WIyWlLk6GJQsqaUBKTNV-0" />
        <mxCell id="WIyWlLk6GJQsqaUBKTNV-1" parent="WIyWlLk6GJQsqaUBKTNV-0" />
        <mxCell id="XJIixO9uUYNl11ddPnQj-0" value="" style="whiteSpace=wrap;html=1;aspect=fixed;fillColor=#fff2cc;strokeColor=#d6b656;" vertex="1" parent="WIyWlLk6GJQsqaUBKTNV-1">
          <mxGeometry x="70" y="180" width="150" height="150" as="geometry" />
        </mxCell>
        <mxCell id="XJIixO9uUYNl11ddPnQj-1" value="" style="endArrow=none;html=1;entryX=0.002;entryY=0.356;entryDx=0;entryDy=0;entryPerimeter=0;" edge="1" parent="WIyWlLk6GJQsqaUBKTNV-1" target="XJIixO9uUYNl11ddPnQj-0">
          <mxGeometry width="50" height="50" relative="1" as="geometry">
            <mxPoint x="220" y="233" as="sourcePoint" />
            <mxPoint x="440" y="400" as="targetPoint" />
          </mxGeometry>
        </mxCell>
        <mxCell id="XJIixO9uUYNl11ddPnQj-2" value="" style="endArrow=none;html=1;exitX=0;exitY=0.25;exitDx=0;exitDy=0;entryX=1;entryY=0.25;entryDx=0;entryDy=0;" edge="1" parent="WIyWlLk6GJQsqaUBKTNV-1" source="XJIixO9uUYNl11ddPnQj-0" target="XJIixO9uUYNl11ddPnQj-0">
          <mxGeometry width="50" height="50" relative="1" as="geometry">
            <mxPoint x="420" y="480" as="sourcePoint" />
            <mxPoint x="470" y="430" as="targetPoint" />
          </mxGeometry>
        </mxCell>
        <mxCell id="cPRJepwQVQg4hK8-SCYL-0" value="&lt;font style=&quot;font-size: 18px&quot;&gt;CannotFly&lt;/font&gt;" style="text;html=1;strokeColor=none;fillColor=none;align=center;verticalAlign=middle;whiteSpace=wrap;rounded=0;" vertex="1" parent="WIyWlLk6GJQsqaUBKTNV-1">
          <mxGeometry x="125" y="190" width="40" height="20" as="geometry" />
        </mxCell>
        <mxCell id="cPRJepwQVQg4hK8-SCYL-1" value="&lt;font style=&quot;font-size: 19px&quot;&gt;+fly()&lt;/font&gt;" style="text;html=1;strokeColor=none;fillColor=none;align=center;verticalAlign=middle;whiteSpace=wrap;rounded=0;spacingLeft=-3;" vertex="1" parent="WIyWlLk6GJQsqaUBKTNV-1">
          <mxGeometry x="80" y="245" width="70" height="20" as="geometry" />
        </mxCell>
        <mxCell id="cPRJepwQVQg4hK8-SCYL-2" value="" style="whiteSpace=wrap;html=1;aspect=fixed;fillColor=#fff2cc;strokeColor=#d6b656;" vertex="1" parent="WIyWlLk6GJQsqaUBKTNV-1">
          <mxGeometry x="304" y="159" width="150" height="150" as="geometry" />
        </mxCell>
        <mxCell id="cPRJepwQVQg4hK8-SCYL-3" value="" style="endArrow=none;html=1;exitX=0;exitY=0.25;exitDx=0;exitDy=0;entryX=1;entryY=0.25;entryDx=0;entryDy=0;" edge="1" parent="WIyWlLk6GJQsqaUBKTNV-1">
          <mxGeometry width="50" height="50" relative="1" as="geometry">
            <mxPoint x="305" y="190" as="sourcePoint" />
            <mxPoint x="455" y="190" as="targetPoint" />
          </mxGeometry>
        </mxCell>
        <mxCell id="cPRJepwQVQg4hK8-SCYL-4" value="" style="endArrow=none;html=1;exitX=0;exitY=0.25;exitDx=0;exitDy=0;entryX=1;entryY=0.25;entryDx=0;entryDy=0;" edge="1" parent="WIyWlLk6GJQsqaUBKTNV-1">
          <mxGeometry width="50" height="50" relative="1" as="geometry">
            <mxPoint x="304" y="212" as="sourcePoint" />
            <mxPoint x="454" y="212" as="targetPoint" />
          </mxGeometry>
        </mxCell>
        <mxCell id="cPRJepwQVQg4hK8-SCYL-5" value="FlyRocketPowered&lt;br style=&quot;font-size: 16px;&quot;&gt;" style="text;html=1;strokeColor=none;fillColor=none;align=center;verticalAlign=middle;whiteSpace=wrap;rounded=0;fontSize=16;" vertex="1" parent="WIyWlLk6GJQsqaUBKTNV-1">
          <mxGeometry x="359" y="170" width="40" height="20" as="geometry" />
        </mxCell>
        <mxCell id="cPRJepwQVQg4hK8-SCYL-7" value="&lt;font style=&quot;font-size: 19px&quot;&gt;+fly()&lt;/font&gt;" style="text;html=1;strokeColor=none;fillColor=none;align=center;verticalAlign=middle;whiteSpace=wrap;rounded=0;spacingLeft=-3;" vertex="1" parent="WIyWlLk6GJQsqaUBKTNV-1">
          <mxGeometry x="320" y="245" width="70" height="20" as="geometry" />
        </mxCell>
        <mxCell id="cPRJepwQVQg4hK8-SCYL-8" value="" style="whiteSpace=wrap;html=1;aspect=fixed;fillColor=#fff2cc;strokeColor=#d6b656;" vertex="1" parent="WIyWlLk6GJQsqaUBKTNV-1">
          <mxGeometry x="528" y="80" width="150" height="150" as="geometry" />
        </mxCell>
        <mxCell id="cPRJepwQVQg4hK8-SCYL-9" value="" style="endArrow=none;html=1;exitX=0;exitY=0.25;exitDx=0;exitDy=0;entryX=1;entryY=0.25;entryDx=0;entryDy=0;" edge="1" parent="WIyWlLk6GJQsqaUBKTNV-1">
          <mxGeometry width="50" height="50" relative="1" as="geometry">
            <mxPoint x="530" y="154.5" as="sourcePoint" />
            <mxPoint x="680" y="154.5" as="targetPoint" />
          </mxGeometry>
        </mxCell>
        <mxCell id="cPRJepwQVQg4hK8-SCYL-10" value="" style="endArrow=none;html=1;exitX=0;exitY=0.25;exitDx=0;exitDy=0;entryX=1;entryY=0.25;entryDx=0;entryDy=0;" edge="1" parent="WIyWlLk6GJQsqaUBKTNV-1">
          <mxGeometry width="50" height="50" relative="1" as="geometry">
            <mxPoint x="528" y="144" as="sourcePoint" />
            <mxPoint x="678" y="144" as="targetPoint" />
          </mxGeometry>
        </mxCell>
        <mxCell id="cPRJepwQVQg4hK8-SCYL-13" value="&amp;lt;&amp;lt;interface&amp;gt;&amp;gt;" style="text;html=1;strokeColor=none;fillColor=none;align=center;verticalAlign=middle;whiteSpace=wrap;rounded=0;fontSize=16;" vertex="1" parent="WIyWlLk6GJQsqaUBKTNV-1">
          <mxGeometry x="585" y="80" width="40" height="36" as="geometry" />
        </mxCell>
        <mxCell id="cPRJepwQVQg4hK8-SCYL-14" value="&lt;b&gt;Turkeylike&lt;/b&gt;" style="text;html=1;strokeColor=none;fillColor=none;align=center;verticalAlign=middle;whiteSpace=wrap;rounded=0;fontSize=16;" vertex="1" parent="WIyWlLk6GJQsqaUBKTNV-1">
          <mxGeometry x="592" y="116" width="40" height="20" as="geometry" />
        </mxCell>
        <mxCell id="cPRJepwQVQg4hK8-SCYL-15" value="+gobble()" style="text;html=1;strokeColor=none;fillColor=none;align=center;verticalAlign=middle;whiteSpace=wrap;rounded=0;fontSize=16;" vertex="1" parent="WIyWlLk6GJQsqaUBKTNV-1">
          <mxGeometry x="565" y="180" width="40" height="20" as="geometry" />
        </mxCell>
        <mxCell id="cPRJepwQVQg4hK8-SCYL-16" value="" style="whiteSpace=wrap;html=1;aspect=fixed;fontSize=16;fillColor=#fff2cc;strokeColor=#d6b656;" vertex="1" parent="WIyWlLk6GJQsqaUBKTNV-1">
          <mxGeometry x="863" y="96" width="160" height="160" as="geometry" />
        </mxCell>
        <mxCell id="cPRJepwQVQg4hK8-SCYL-17" value="" style="endArrow=none;html=1;exitX=0;exitY=0.25;exitDx=0;exitDy=0;entryX=1.019;entryY=0.191;entryDx=0;entryDy=0;entryPerimeter=0;" edge="1" parent="WIyWlLk6GJQsqaUBKTNV-1" target="cPRJepwQVQg4hK8-SCYL-16">
          <mxGeometry width="50" height="50" relative="1" as="geometry">
            <mxPoint x="864" y="125.58" as="sourcePoint" />
            <mxPoint x="1014" y="125.58" as="targetPoint" />
          </mxGeometry>
        </mxCell>
        <mxCell id="cPRJepwQVQg4hK8-SCYL-20" value="" style="endArrow=none;html=1;exitX=0;exitY=0.25;exitDx=0;exitDy=0;entryX=1.019;entryY=0.191;entryDx=0;entryDy=0;entryPerimeter=0;" edge="1" parent="WIyWlLk6GJQsqaUBKTNV-1">
          <mxGeometry width="50" height="50" relative="1" as="geometry">
            <mxPoint x="860.96" y="144.00000000000003" as="sourcePoint" />
            <mxPoint x="1024" y="144.97999999999993" as="targetPoint" />
          </mxGeometry>
        </mxCell>
        <mxCell id="cPRJepwQVQg4hK8-SCYL-21" value="&lt;b&gt;DuckAdapter&lt;/b&gt;" style="text;html=1;strokeColor=none;fillColor=none;align=center;verticalAlign=middle;whiteSpace=wrap;rounded=0;fontSize=16;" vertex="1" parent="WIyWlLk6GJQsqaUBKTNV-1">
          <mxGeometry x="924" y="96" width="40" height="20" as="geometry" />
        </mxCell>
        <mxCell id="cPRJepwQVQg4hK8-SCYL-22" value="+DuckAdapter(final ducklike)" style="text;html=1;strokeColor=none;fillColor=none;align=center;verticalAlign=middle;whiteSpace=wrap;rounded=0;fontSize=16;" vertex="1" parent="WIyWlLk6GJQsqaUBKTNV-1">
          <mxGeometry x="887" y="180" width="112" height="28" as="geometry" />
        </mxCell>
      </root>
    </mxGraphModel>
  </diagram>
</mxfile>
